<svg xmlns="http://www.w3.org/2000/svg" xmlns:xlink="http://www.w3.org/1999/xlink" viewBox="0 0 1500 1000"><defs><style>.cls-1{fill:#fff;}.cls-2{fill:#1d1d1b;}.cls-3{fill:url(#Dégradé_sans_nom);}.cls-4{fill:url(#Dégradé_sans_nom_2);}.cls-5{fill:url(#Dégradé_sans_nom_3);}.cls-6{fill:url(#Dégradé_sans_nom_4);}.cls-7{fill:url(#Dégradé_sans_nom_5);}.cls-8{fill:url(#Dégradé_sans_nom_6);}.cls-9{fill:url(#Dégradé_sans_nom_7);}.cls-10{fill:url(#Dégradé_sans_nom_8);}.cls-11{fill:url(#Dégradé_sans_nom_9);}.cls-12{fill:url(#Dégradé_sans_nom_10);}.cls-13{isolation:isolate;font-size:150px;font-family:BookAntiqua, Book Antiqua;}.cls-14{fill:url(#Dégradé_sans_nom_11);}</style><linearGradient id="Dégradé_sans_nom" x1="539.98" y1="800.51" x2="794.58" y2="654.22" gradientTransform="matrix(1, 0, 0, -1, 0, 1000)" gradientUnits="userSpaceOnUse"><stop offset="0" stop-color="#fff"/><stop offset="0" stop-color="#cd5355"/><stop offset="1" stop-color="#fae56f"/></linearGradient><linearGradient id="Dégradé_sans_nom_2" x1="568.26" y1="849.72" x2="822.86" y2="703.44" xlink:href="#Dégradé_sans_nom"/><linearGradient id="Dégradé_sans_nom_3" x1="542.04" y1="804.08" x2="796.64" y2="657.79" xlink:href="#Dégradé_sans_nom"/><linearGradient id="Dégradé_sans_nom_4" x1="416.67" y1="585.88" x2="671.27" y2="439.6" xlink:href="#Dégradé_sans_nom"/><linearGradient id="Dégradé_sans_nom_5" x1="592.88" y1="892.56" x2="847.48" y2="746.28" xlink:href="#Dégradé_sans_nom"/><linearGradient id="Dégradé_sans_nom_6" x1="591.91" y1="890.89" x2="846.51" y2="744.61" xlink:href="#Dégradé_sans_nom"/><linearGradient id="Dégradé_sans_nom_7" x1="595.97" y1="897.96" x2="850.58" y2="751.67" xlink:href="#Dégradé_sans_nom"/><linearGradient id="Dégradé_sans_nom_8" x1="501.54" y1="733.59" x2="756.14" y2="587.31" xlink:href="#Dégradé_sans_nom"/><linearGradient id="Dégradé_sans_nom_9" x1="528.87" y1="781.17" x2="783.47" y2="634.89" xlink:href="#Dégradé_sans_nom"/><linearGradient id="Dégradé_sans_nom_10" x1="450.48" y1="644.73" x2="705.08" y2="498.45" xlink:href="#Dégradé_sans_nom"/><linearGradient id="Dégradé_sans_nom_11" x1="0" y1="500" x2="1500" y2="500" xlink:href="#Dégradé_sans_nom"/></defs><g id="Calque_2" data-name="Calque 2"><rect class="cls-1" x="5" y="5" width="1490" height="990"/></g><g id="Calque_1" data-name="Calque 1"><g id="Calque_2-2" data-name="Calque 2"><circle class="cls-2" cx="750" cy="389.7" r="298.9"/><path class="cls-3" d="M645.3,259.4h-2.1l-1.5-1.4A5.4,5.4,0,0,0,645.3,259.4Z"/><path class="cls-4" d="M641.7,258l1.5,1.4h2.1A5.4,5.4,0,0,1,641.7,258Zm7.5-.3c.1-.1.1-.1.1-.2s.1,0,.1-.1Zm201.4-.1h.1l.2.3Zm2.1-8.8-1.5,1.3-.3.3a5.5,5.5,0,0,1,3.8-1.6Zm2,10.8h2.1l1.5-1.4a5.4,5.4,0,0,1-3.6,1.4Z"/><path class="cls-5" d="M649.4,257.4c0,.1,0,.1-.1.1s0,.1-.1.2S649.4,257.5,649.4,257.4Z"/><path class="cls-6" d="M719,571.8H644.4a5.4,5.4,0,0,1,0-10.8H719a5.4,5.4,0,1,1,0,10.8Z"/><path class="cls-7" d="M858.3,258.2l-1.5,1.4h-2.1A5.4,5.4,0,0,0,858.3,258.2Z"/><path class="cls-8" d="M850.9,258l-.2-.3h-.1Z"/><path class="cls-9" d="M854.7,248.8a5.5,5.5,0,0,0-3.8,1.6l.3-.3,1.5-1.3Z"/><path class="cls-10" d="M724.7,394.2h0l20.5,41.6Zm50.6.1-20.4,41.5Z"/><path class="cls-11" d="M911,295.7,866.4,251l38.4-33.9a5.4,5.4,0,0,0,.4-7.6,5.2,5.2,0,0,0-7.3-.7l-.2.2-45,39.8h2a5.5,5.5,0,0,0-3.8,1.6l.3-.3,1.5-1.3H772.8a5.5,5.5,0,0,0-3.8,1.6l-18.9,18.8-19.1-19a5.5,5.5,0,0,0-3.8-1.6H647.3l-45-39.8a5.4,5.4,0,0,0-7.5.5h0a5.4,5.4,0,0,0,.4,7.6l38.4,34L589,295.5a5.5,5.5,0,0,0-1.6,3.8V341a5.5,5.5,0,0,0,1.6,3.9l19.3,19.3-1.6,92.9a5.6,5.6,0,0,0,1.5,3.9l28.5,28.5h.1l39.9,40a5.4,5.4,0,0,0,3.8,1.5h68a3.2,3.2,0,0,0,1.4.2h69.6a5.5,5.5,0,0,0,3.8-1.6l40-40h.1l28.3-28.3a5.5,5.5,0,0,0,1.6-3.9l-1.6-92.9L911,345a5.5,5.5,0,0,0,1.6-3.8V299.5A5.5,5.5,0,0,0,911,295.7ZM850.9,258l-.2-.3h-.1ZM725,259.4l20.9,20.9a6.5,6.5,0,0,0,2.1,1.6,5.6,5.6,0,0,0,5.9-1.2L775,259.6h65.5l-41.9,37h0l-7.4,6.6h-.1c0,.1-.1.1-.1.2l-40.9,36.1-90.6-80.1Zm79.1,46.7h30.3v31.7H799.9v-28ZM765.9,389,750,421.2l-15.9-32.4L750,358.5Zm-65.8-79.4v28.1H665.6V305.9h30.3Zm-50.7-52.2c0,.1,0,.1-.1.1s0,.1-.1.2S649.4,257.5,649.4,257.4ZM635.1,472.6,617.5,455l1.4-80.2L635.1,391ZM617.5,358.2l-19.3-19.4V301.6l42.1-42.2h2.9l-1.5-1.4a5.4,5.4,0,0,0,3.6,1.4h-2.1l40.5,35.8H660.3a5.4,5.4,0,0,0-5.4,5.4h0V343a5.4,5.4,0,0,0,5.4,5.4h45.2a5.4,5.4,0,0,0,5.4-5.4h0V319.2l32.5,28.7-18.6,35.5h-82ZM854.1,483.6l-36.8,36.8H682.7l-36.8-36.9V394.2h78.8l20.5,41.6a5.4,5.4,0,0,0,7.2,2.5,5.5,5.5,0,0,0,2.5-2.5l20.4-41.5h78.8Zm10.8-10.8V391.2L881.1,375l1.4,80.2ZM901.8,339l-19.3,19.4h-.1l-25.2,25.1h-82L756.7,348l32.5-28.8v23.9a5.5,5.5,0,0,0,5.3,5.4h45.2a5.4,5.4,0,0,0,5.4-5.4h0V300.7a5.4,5.4,0,0,0-5.4-5.4H816.3l40.5-35.7h-2.1a5.4,5.4,0,0,0,3.6-1.4l-1.5,1.4h2.9l42.1,42.1Z"/><path class="cls-12" d="M855.6,572H781a5.4,5.4,0,1,1,0-10.8h74.6a5.4,5.4,0,0,1,0,10.8Z"/><text class="cls-13" transform="translate(117.3 839.9)">La chouette agence</text><path class="cls-14" d="M1490,10V990H10V10H1490m10-10H0V1000H1500Z"/></g></g></svg>