<svg xmlns="http://www.w3.org/2000/svg" viewBox="0 0 1500 1000"><defs><style>.cls-1{fill:#fff;}.cls-2{fill:#1d1d1b;}</style></defs><g id="Calque_2" data-name="Calque 2"><rect class="cls-1" x="5" y="5" width="1490" height="990"/></g><g id="Calque_1" data-name="Calque 1"><g id="Calque_2-2" data-name="Calque 2"><path class="cls-2" d="M1490,10V990H10V10H1490m10-10H0V1000H1500Z"/><g id="_35fa3215-a46c-2dc7-0ca7-44149903aade" data-name=" 35fa3215-a46c-2dc7-0ca7-44149903aade"><path d="M442.1,541.7h0c-16.9,0-31-5.6-42.3-17h0c-11.4-11.3-17.1-25.5-17.1-42.5h0c0-16.7,5.7-30.7,17.1-42.2h0c11.3-11.3,25.4-17,42.3-17h0q25.3,0,43.5,15.9h0l-15.7,17.2h0a44.4,44.4,0,0,0-27.8-9.5h0c-10.7.1-19.3,3.5-25.9,10.1h0c-6.5,6.6-9.7,15-9.7,25.3h0c0,11,3.3,19.8,9.8,26.3h0c6.6,6.5,15.2,9.7,25.9,9.7h0c8.5,0,15.1-1.7,19.7-5h0V492.6H446.1V470.5h39.5V526h0C473.6,536.5,459.1,541.7,442.1,541.7Zm86-79.2v8.8h0a28.2,28.2,0,0,1,20.8-8.7h0a44.9,44.9,0,0,1,7.3.6h0l-3.5,21.9h0c-2.6-2.3-6.2-3.6-11-3.7h0c-5.4.4-9.9,4.3-13.6,11.7h0v48.6H506V464.9Zm78.5,80.1h0c-11.5,0-21.2-3.9-28.9-11.6h0c-7.6-7.8-11.4-17.3-11.4-28.8h0q0-17.2,11.4-28.8h0c7.7-7.7,17.4-11.6,28.9-11.6h0c11.5,0,21.1,3.9,28.8,11.6h0c7.7,7.7,11.6,17.3,11.6,28.8h0c0,11.5-3.9,21.1-11.6,28.8h0C627.7,538.7,618.1,542.6,606.6,542.6Zm0-19.2h0a18.8,18.8,0,0,0,14.6-6.1h0c3.8-4,5.6-9,5.6-15.1h0c0-6-1.8-11-5.6-15h0a19.1,19.1,0,0,0-14.7-6.2h0a18.9,18.9,0,0,0-14.6,6.2h0c-3.8,4-5.6,9-5.6,15h0c0,6.1,1.8,11.1,5.6,15.1h0c3.7,4.1,8.6,6.1,14.7,6.1Zm103.2-9.7h0V462.5h22.1v79.2H709.8v-7.1h0a27.2,27.2,0,0,1-19,7.1h0c-10,0-17.7-3-22.9-9.1h0a30.6,30.6,0,0,1-8-21h0V462.5h22.2v43.6h0c0,5.2,1.3,9.3,3.9,12.2h0c2.7,3,6.6,4.5,12,4.7h0c4.6-.3,8.5-3.4,11.8-9.3Zm63.1,61.4H750.8V464.9l22.1-2.4v6.4h0c6-4.3,11.8-6.4,17.5-6.4h0c12.2,0,21.8,4,28.9,11.9h0A39.5,39.5,0,0,1,830,502.1h0a39.5,39.5,0,0,1-10.7,27.7h0c-7.1,8-16.7,11.9-28.9,11.9h0c-7.9-.5-13.8-2.7-17.5-6.4h0Zm0-80.2h0v12.9h0c1.1,8.9,6.7,14.1,16.7,15.6h0c12.7-1,19.8-7.5,21.4-19.7h0c-.5-14.8-7.6-22.5-21.4-23h0c-10,1.6-15.6,6.4-16.7,14.2Zm108.7,47.7h0c-11.5,0-21.1-3.9-28.7-11.6h0c-7.8-7.8-11.6-17.3-11.6-28.8h0c0-11.5,3.8-21.1,11.6-28.8h0c7.6-7.7,17.2-11.6,28.7-11.6h0c11.5,0,21.1,3.9,28.8,11.6h0c7.8,7.7,11.6,17.3,11.6,28.8h0c0,11.5-3.8,21.1-11.6,28.8h0C902.7,538.7,893.1,542.6,881.6,542.6Zm0-19.2h0c6,0,10.9-2,14.6-6.1h0a21.1,21.1,0,0,0,5.7-15.1h0a20.7,20.7,0,0,0-5.7-15h0c-3.7-4.1-8.6-6.2-14.7-6.2h0a18.9,18.9,0,0,0-14.6,6.2h0a21.4,21.4,0,0,0-5.6,15h0a21,21,0,0,0,5.6,15.1h0c3.8,4.1,8.7,6.1,14.7,6.1ZM959,491.1h0v50.6H936.7V464.9l22.3-2.4v7.1h0c4.9-4.7,11.3-7,19-7h0c10,0,17.6,3,22.9,9.1h0c5.8-6.1,14.5-9.1,26.1-9.1h0c10,0,17.7,3,23,9.1h0a30.9,30.9,0,0,1,7.9,21h0v49h-22.1V498.2h0q0-7.9-3.6-12.3h0c-2.4-2.9-6.2-4.4-11.6-4.5h0c-4.4.3-8.2,3.2-11.3,8.7h0a27.3,27.3,0,0,0-.5,5h0v46.6H986.7V498.2h0q0-7.9-3.6-12.3h0c-2.4-2.9-6.3-4.4-11.6-4.5h0C966.6,481.7,962.5,484.9,959,491.1Zm128.7-5.5-8.7-13.5h0c10.1-6.3,21.7-9.5,34.9-9.5h0c9.5,0,17,2.6,22.5,7.9h0c5.5,5.3,8.3,13.2,8.3,23.7h0v47.5h-22.1v-6.2h0c-6.5,4.2-12.3,6.2-17.5,6.2h0c-10.5,0-18.4-2.2-23.8-6.7h0c-5.2-4.5-7.9-10.6-7.9-18.5h0a29.5,29.5,0,0,1,7.6-19.8h0c4.9-5.8,13-8.7,24.1-8.7h0c5.2,0,11,1.6,17.5,4.7h0v-2.4h0c-.2-5.8-4.4-9-12.8-9.5h0C1100.3,480.8,1093,482.4,1087.7,485.6Zm34.9,32.4h0v-8.9h0c-2.1-4.1-7.1-6.2-15.1-6.2h0c-9.5,1.1-14.5,4.8-15.1,11.2h0c.6,6.2,5.6,9.6,15.1,10.2h0C1115.5,524.3,1120.5,522.2,1122.6,518Zm64.2-26.5h0v50.2h-22.3V464.9l22.3-2.4v7.2h0a27.7,27.7,0,0,1,19-7.1h0c10,0,17.6,3,22.9,9.1h0a31.9,31.9,0,0,1,7.9,21h0v49h-22.2V498.2h0q0-7.9-3.9-12.3h0q-4.1-4.3-12-4.5h0c-4.6.3-8.5,3.7-11.7,10.1Zm90.5,50.2h-22.1V462.5h22.1Zm-22.9-98.1h0a11.1,11.1,0,0,0,3.1,7.9h0c2.2,2.1,5.1,3.1,8.8,3.1h0c3.7,0,6.6-1,8.7-3.1h0a10.6,10.6,0,0,0,3.2-7.9h0a11.3,11.3,0,0,0-3.2-8h0c-2.1-2.1-5.1-3.2-8.9-3.2h0a11.8,11.8,0,0,0-8.6,3.2h0a11.8,11.8,0,0,0-3.1,8Zm52.5,42-8.7-13.5h0c10-6.3,21.7-9.5,34.9-9.5h0c9.5,0,17,2.6,22.6,7.9h0c5.4,5.3,8.2,13.2,8.2,23.7h0v47.5h-22.1v-6.2h0c-6.4,4.2-12.2,6.2-17.4,6.2h0c-10.6,0-18.5-2.2-23.8-6.7h0c-5.3-4.5-8-10.6-8-18.5h0a29.5,29.5,0,0,1,7.6-19.8h0c4.9-5.8,13-8.7,24.2-8.7h0c5.1,0,10.9,1.6,17.4,4.7h0v-2.4h0c-.1-5.8-4.3-9-12.7-9.5h0Q1314.9,480.8,1306.9,485.6Zm34.9,32.4h0v-8.9h0c-2.1-4.1-7.1-6.2-15.1-6.2h0c-9.5,1.1-14.5,4.8-15.1,11.2h0c.6,6.2,5.6,9.6,15.1,10.2h0c8,0,13-2.1,15.1-6.3Z"/></g><g id="c3a0a99d-5b99-a49f-d46f-4168a2d07e26"><path d="M234.5,598.4a98,98,0,1,0-69.7-28.7A98,98,0,0,0,234.5,598.4Zm5.7-16.7a54.4,54.4,0,0,1-5.7.3c-2.5,0-5.1-.3-7.7-.5a138.7,138.7,0,0,1-18.6-42.2h41.7a20.7,20.7,0,0,0,7,9A143,143,0,0,1,240.2,581.7Zm22.4-4.7a147.1,147.1,0,0,0,10.8-25.2,20.4,20.4,0,0,0,14.8-12.5h18.2A84.3,84.3,0,0,1,262.6,577Zm53.7-77a91.2,91.2,0,0,1-3.1,22.6H287.8a21.4,21.4,0,0,0-6.6-8c.4-5.2.7-10.4.7-15.5a174.4,174.4,0,0,0-1.4-21.7H313a71.9,71.9,0,0,1,3.3,22.6Zm-9.9-39.3H277.6a156.5,156.5,0,0,0-13.6-37c17.9,6.8,33,20.3,42.4,37Zm-41,38.4c0,4-.2,8-.5,12a20.1,20.1,0,0,0-14.6,11.5H204.9a153.1,153.1,0,0,1-1.7-21.4c0-4.5.3-9,.7-13.4a21.6,21.6,0,0,0,14.2-10.4H264a174.4,174.4,0,0,1,1.4,21.7Zm-37-80.6c2.1-.2,4.3-.2,6.1-.2s4.8,0,7.1.2a144.9,144.9,0,0,1,18.6,42.2h-41a22.7,22.7,0,0,0-7.3-10.2,153.9,153.9,0,0,1,16.5-32Zm-22.3,4.7a159.6,159.6,0,0,0-10.4,23.6,21.1,21.1,0,0,0-15.6,13.6H163a82.7,82.7,0,0,1,43.1-37.2ZM152.8,500a78.2,78.2,0,0,1,3.3-22.6h25.7a22.7,22.7,0,0,0,5.9,6.8c-.5,5.7-1,11.3-1,17a152.9,152.9,0,0,0,1.5,21.4H156.1A71.9,71.9,0,0,1,152.8,500ZM191,539.1a162.7,162.7,0,0,0,13.6,37,83.2,83.2,0,0,1-41.9-37Z"/></g></g></g></svg>