<svg xmlns="http://www.w3.org/2000/svg" xmlns:xlink="http://www.w3.org/1999/xlink" viewBox="0 0 1500 1000"><defs><style>.cls-1{fill:#fff;}.cls-2{isolation:isolate;font-size:150px;font-family:BookAntiqua, Book Antiqua;}.cls-3{fill:url(#Dégradé_sans_nom);}.cls-4{fill:url(#Dégradé_sans_nom_2);}.cls-5{fill:url(#Dégradé_sans_nom_3);}.cls-6{fill:url(#Dégradé_sans_nom_4);}.cls-7{fill:url(#Dégradé_sans_nom_5);}</style><linearGradient id="Dégradé_sans_nom" y1="500" x2="1500" y2="500" gradientTransform="matrix(1, 0, 0, -1, 0, 1000)" gradientUnits="userSpaceOnUse"><stop offset="0.14" stop-color="#e58a0b"/><stop offset="0.46" stop-color="#ae6ca6"/><stop offset="0.7" stop-color="#8f5bfe"/></linearGradient><linearGradient id="Dégradé_sans_nom_2" x1="375.6" y1="-335.63" x2="1154.67" y2="221.15" gradientTransform="translate(-12.4 405.2)" xlink:href="#Dégradé_sans_nom"/><linearGradient id="Dégradé_sans_nom_3" x1="155.24" y1="-147.82" x2="941.65" y2="414.2" gradientTransform="translate(0 500.1)" xlink:href="#Dégradé_sans_nom"/><linearGradient id="Dégradé_sans_nom_4" x1="288.14" y1="-333.77" x2="1074.55" y2="228.25" gradientTransform="translate(0 500.1)" xlink:href="#Dégradé_sans_nom"/><linearGradient id="Dégradé_sans_nom_5" x1="269.82" y1="-149.02" x2="1027.28" y2="392.32" gradientTransform="translate(-12.4 405.2)" xlink:href="#Dégradé_sans_nom"/></defs><g id="Calque_2" data-name="Calque 2"><rect class="cls-1" x="5" y="5" width="1490" height="990"/></g><g id="Calque_1" data-name="Calque 1"><g id="Calque_2-2" data-name="Calque 2"><text class="cls-2" transform="translate(480.8 839.9)">Orinoco</text><path class="cls-3" d="M1490,10V990H10V10H1490m10-10H0V1000H1500Z"/><path class="cls-4" d="M769.7,479.3H1005a10.5,10.5,0,0,0,10.2-8.1l62.5-268.3a10.5,10.5,0,0,0-7.9-12.6h0a8.5,8.5,0,0,0-2.3-.3H522.3a10.5,10.5,0,0,1-9.7-6.5l-20.8-52.1a10.4,10.4,0,0,0-9.7-6.6H419.2a10.5,10.5,0,0,0-10.5,10.5v10.8a10.6,10.6,0,0,0,6.4,9.7l3.7,1.6a10.6,10.6,0,0,0,11-1.9l6.6-5.8a10.6,10.6,0,0,1,7-2.7h26a10.5,10.5,0,0,1,10.1,7.6l94.8,326.2a10.5,10.5,0,0,1-.5,7l-34.9,82.5a10.4,10.4,0,0,0,5.4,13.7,10.8,10.8,0,0,0,7.5.3h0a10.7,10.7,0,0,0,6.4-5.9l37.2-88.6a10.5,10.5,0,0,1,9.4-6.4Z"/><circle class="cls-5" cx="559.5" cy="641.2" r="40.9"/><circle class="cls-6" cx="952.6" cy="641.2" r="40.9"/><path class="cls-7" d="M611.6,614.8l2.3,5.5a10.3,10.3,0,0,0,9.7,6.3H888.1a10.5,10.5,0,0,0,9.3-5.5l2.9-5.5a10.6,10.6,0,0,0-4.4-14.2,10.4,10.4,0,0,0-4.9-1.2H621.2a10.6,10.6,0,0,0-10.5,10.5A9.8,9.8,0,0,0,611.6,614.8Z"/></g></g></svg>