<svg xmlns="http://www.w3.org/2000/svg" xmlns:xlink="http://www.w3.org/1999/xlink" viewBox="0 0 1500 1000"><defs><style>.cls-1{fill:#fff;}.cls-17,.cls-18,.cls-2,.cls-20,.cls-4,.cls-8{fill:none;}.cls-2{stroke:#e30613;}.cls-10,.cls-11,.cls-12,.cls-13,.cls-14,.cls-15,.cls-16,.cls-17,.cls-18,.cls-2,.cls-4,.cls-5,.cls-6,.cls-7,.cls-8,.cls-9{stroke-miterlimit:10;}.cls-3{fill:url(#Dégradé_sans_nom);}.cls-4{stroke:url(#Dégradé_sans_nom_2);}.cls-5,.cls-6{fill:#f9b233;}.cls-5{stroke:url(#Dégradé_sans_nom_3);}.cls-6{stroke:url(#Dégradé_sans_nom_4);}.cls-7,.cls-9{fill:#1d1d1b;}.cls-7{stroke:url(#Dégradé_sans_nom_5);}.cls-8{stroke:url(#Dégradé_sans_nom_6);}.cls-9{stroke:url(#Dégradé_sans_nom_7);}.cls-10,.cls-14{fill:#be1622;}.cls-10{stroke:url(#Dégradé_sans_nom_8);}.cls-11,.cls-15{fill:#063;}.cls-11{stroke:url(#Dégradé_sans_nom_9);}.cls-12,.cls-16{fill:#009640;}.cls-12{stroke:url(#Dégradé_sans_nom_10);}.cls-13{fill:#e6332a;stroke:url(#Dégradé_sans_nom_11);}.cls-14{stroke:url(#Dégradé_sans_nom_12);}.cls-15{stroke:url(#Dégradé_sans_nom_13);}.cls-16{stroke:url(#Dégradé_sans_nom_14);}.cls-17{stroke:url(#Dégradé_sans_nom_15);}.cls-18{stroke:url(#Dégradé_sans_nom_16);}.cls-19,.cls-20{isolation:isolate;font-size:200px;font-family:TimesNewRomanPSMT, Times New Roman;}.cls-20{stroke:#000;}</style><linearGradient id="Dégradé_sans_nom" y1="500" x2="1500" y2="500" gradientTransform="matrix(1, 0, 0, -1, 0, 1000)" gradientUnits="userSpaceOnUse"><stop offset="0" stop-color="#e6332a"/><stop offset="1"/></linearGradient><linearGradient id="Dégradé_sans_nom_2" x1="782.8" y1="555.6" x2="782.8" y2="555.6" xlink:href="#Dégradé_sans_nom"/><linearGradient id="Dégradé_sans_nom_3" x1="500.8" y1="657" x2="922.23" y2="657" xlink:href="#Dégradé_sans_nom"/><linearGradient id="Dégradé_sans_nom_4" x1="501.1" y1="723.2" x2="501.1" y2="723.2" xlink:href="#Dégradé_sans_nom"/><linearGradient id="Dégradé_sans_nom_5" x1="292.72" y1="481.66" x2="1153.31" y2="481.66" xlink:href="#Dégradé_sans_nom"/><linearGradient id="Dégradé_sans_nom_6" x1="176.37" y1="677.1" x2="1296.28" y2="677.1" xlink:href="#Dégradé_sans_nom"/><linearGradient id="Dégradé_sans_nom_7" x1="178.39" y1="613.32" x2="1294.16" y2="613.32" xlink:href="#Dégradé_sans_nom"/><linearGradient id="Dégradé_sans_nom_8" x1="970.3" y1="685.39" x2="1150.39" y2="685.39" xlink:href="#Dégradé_sans_nom"/><linearGradient id="Dégradé_sans_nom_9" x1="203.13" y1="772.86" x2="337.41" y2="772.86" xlink:href="#Dégradé_sans_nom"/><linearGradient id="Dégradé_sans_nom_10" x1="314.29" y1="734.28" x2="369.52" y2="734.28" xlink:href="#Dégradé_sans_nom"/><linearGradient id="Dégradé_sans_nom_11" x1="329.73" y1="699.62" x2="1088.93" y2="699.62" xlink:href="#Dégradé_sans_nom"/><linearGradient id="Dégradé_sans_nom_12" x1="496.27" y1="723.11" x2="966.07" y2="723.11" xlink:href="#Dégradé_sans_nom"/><linearGradient id="Dégradé_sans_nom_13" x1="485" y1="763.05" x2="529.91" y2="763.05" xlink:href="#Dégradé_sans_nom"/><linearGradient id="Dégradé_sans_nom_14" x1="393.39" y1="796.96" x2="505.32" y2="796.96" xlink:href="#Dégradé_sans_nom"/><linearGradient id="Dégradé_sans_nom_15" x1="878" y1="371.9" x2="878" y2="371.9" xlink:href="#Dégradé_sans_nom"/><linearGradient id="Dégradé_sans_nom_16" x1="646.7" y1="582" x2="646.7" y2="582" xlink:href="#Dégradé_sans_nom"/></defs><g id="Calque_3" data-name="Calque 3"><rect class="cls-1" x="5" y="5" width="1490" height="990"/></g><g id="Calque_2" data-name="Calque 2"><path class="cls-2" d="M670.3,342.2"/><path class="cls-3" d="M1490,10V990H10V10H1490m10-10H0V1000H1500Z"/><path class="cls-4" d="M782.8,444.4"/><path class="cls-5" d="M557,286.1l6.1,1.2Zm-17.6-3.4,4.9.9ZM912.2,403.3l10-.5ZM539.4,282.7l4.9.9Zm17.6,3.4,6.1,1.2Z"/><path class="cls-6" d="M501.1,276.8Z"/><path class="cls-7" d="M1152.4,454.9c-4.3,15.4-38.3,46.8-138.2,66.6h-.4c-6.5,5-11.9,9.7-17.1,14.4C964,565,940.4,585.9,723,585.1c-217.3.8-241-20.1-273.7-49-5.2-4.7-10.6-9.4-17.1-14.4h-.4c-100-19.9-134-51.2-138.2-66.6a5.8,5.8,0,0,1-.3-3.2C356.5,472,469.8,498.8,723,497.8c253.1.9,366.5-25.8,429.7-46.1A5.8,5.8,0,0,1,1152.4,454.9Z"/><path class="cls-8" d="M1295.6,355c-3.6-19.7-38.7-37.2-61.4-44.2-24.7-7.5-65.1-10.5-78.9-9.6l-2.1.2,2,2.3c3.9,4.6,4.5,5.3,16.6,10l13.3,3.7c12.6,3.5,28.3,7.8,37.4,12.3,6.3,2.9,9.9,6.5,10.3,10.4s-2.1,7.8-7.3,11.8c-11.1,8.5-49,21.3-63.1,23.3-5.9.9-105.2,19.1-142.5,26l-11.4,2.1c-7.2,1.2-19.7,1.5-25.2,1.5l5.5-4.9c6-.4,88.4-6.9,140.5-59.5h.1c46.1-58.3,7.4-111.3,7-111.8l-1.5-2-.4,2.4c0,.5-9,50-44.9,62.1,5.5-56.5-16.9-82.8-29-97.1-2.1-2.4-3.8-4.5-5.2-6.4l-2.7-3.6.9,4.4c5.6,31.1.5,52.1-5.2,70.9-3.8,12.4-33,41.5-77.7,55.3-23.5,7.2-47.1,8.9-70.1,5-164.9-35.8-241.6-64.7-287.4-82-19-7.2-32.8-12.4-46.1-15.6-16.5-4.1-40.7-7.1-56.7-9l-11.3-1.5c-11.9-1.7-104.5-46.6-105.4-47l-.9-.5-.4.9c-3.9,7.3,18.8,22.9,51.2,44.1,10.6,6.9,19.8,12.9,24.5,16.8,23.9,15.9,30,42.8,31.2,49.5-8.5-4.4-45.8-23-79.2-34.1-18.3-7.4-26.1-5.6-36.9-3.2a115.1,115.1,0,0,1-30.4,3.1c-20.2-2.1-32-7.4-53.4-17.2a973.2,973.2,0,0,0-93.2-37.3l-.6-.2-.4.4a12.9,12.9,0,0,0-3.6,6.3l-.2.5.4.5c21.1,21,38.6,29.3,58.7,38.8,13.1,6.2,26.6,12.6,42.7,23.1,26,23.5,27.6,41.1,29.1,58.2,2.3,24.5,4.3,45.7,78.1,76,82.9,16.5,203.3,18.9,275.2,20.4,23.1.4,41.3.8,50,1.5,21.3-.1,37.1.2,46.9,1h.2c11,1,12,2.4,12.1,2.5s-1.1,1.4-6.9,3.6a13.7,13.7,0,0,1-4.9.9c-219.9-4.7-306-9.4-484.2-48.4-20-2.7-56.8-22.8-61.5-25.4l-.8-11.5c6-2.2,48.1-18,85.8-30.1l.7-.3v-.7a26.5,26.5,0,0,0-3.1-11.7l-.4-.8-.8.2c-138,34.8-140.3,52-141.6,62.4l-.2,1.1c-.3,4.6,1.1,21.3,29.7,42,36.3,26.3,100.9,48.4,192,65.7C477,477.5,599.2,482,714.5,482c146.5,0,282-7.3,302.7-9.8,36.2-4.4,146.2-29.9,154.4-33.2C1174.8,438,1301.2,395.6,1295.6,355ZM1136.1,231.7c6.3,10,31.8,56.6-8.3,107.3C1077,390.2,997,397.2,989,397.8h-.7l-14.8.5c58.4-20.8,107.5-92.7,115.6-105.1C1122.4,283,1133.7,242.1,1136.1,231.7Zm-666.8-7.6c-4.7-3.9-13.9-9.9-24.5-16.8-20.4-13.4-50.8-33.2-50.9-40.4,11.2,5.4,93.3,45,104.9,46.6l5,.7c-16,9.1-18.4,20.6-18.8,24.5a66.1,66.1,0,0,0-15.7-14.6ZM486,239.9h1c0-.2-.1-14.4,19-24.6l-.4-.9,4.6.6,18,2.3c-19.5,9.6-29.6,35.5-31.7,41.4A84.5,84.5,0,0,0,486,239.9Zm11.1,20.3,1,.3c.1-.3,10.6-32.4,32.4-42l-.4-.9c12.6,1.7,26.1,3.8,36.5,6.4,13.2,3.2,26.9,8.4,45.9,15.6,45.9,17.2,122.6,46.2,287.8,81.9a151.8,151.8,0,0,0,61.5-2.4l-2.2,1.1-2.3,1.1-3,1.4-2.1,1-5.7,2.4-2.4,1-4.7,1.9c-3.6,1.4-7.3,2.7-11,3.8l-1.7.5-2.5.7-2.5.6h-.2l-2.3.5-3,.5-1.8.3-1.5.2h-3c-11.6.5-31.1.3-53.6,0-14.3-.1-29.8-.3-44.8-.3l-26.9.2c-25,.6-31-1.3-53.1-8.3-16-5-40.2-12.7-85.8-23.9l-26.3-6.3-6.5-1.5-13.1-3-7.3-1.7-13.6-3-4.7-1-7.7-1.6-2.9-.6-16.5-3.2-4.1-.8-4.4-.8-11.8-2.1-2.9-.5-5.7-.9-5.6-.8-1.3-.2-1.7-.3-3.7-.5h-.8l-3.5-.4h-.3a91.2,91.2,0,0,0-4.2-14.4Zm-192.7-5.9c-16.3-10.6-29.9-17-43-23.2-19.8-9.4-37-17.6-57.7-38a10.4,10.4,0,0,1,2.5-4.3,956.7,956.7,0,0,1,92.4,37c15.1,6.9,25.4,11.6,37.3,14.5-13,6-19.6,21.7-20.8,24.8a136.3,136.3,0,0,0-10.7-10.8ZM315.8,266l1,.4c.1-.2,7-19,21.2-24.7l-.4-1a126.8,126.8,0,0,0,15,2.5,148.4,148.4,0,0,0,14.9-.5c-24.4,15.5-35.3,41.4-37.5,47.3A74.7,74.7,0,0,0,315.8,266ZM782.5,411.1h0c-8.4-.7-20.6-1.1-37-1.1h-9.9c-8.6-.8-26-1.1-49.9-1.6-71.9-1.4-192.2-3.9-274.7-20.3-72.5-29.7-74.4-50.4-76.6-74.3-.6-6.9-1.3-14.3-3.9-22.3l1,.3c.1-.3,10.6-31.7,38.8-48.5l-.5-.9a133.4,133.4,0,0,0,13.8-2.5c10.5-2.3,18-4,35.8,3.1,34,11.3,72.2,30.5,79.5,34.3a1.7,1.7,0,0,0,1.8-.2l.4-.4h4.6l1.6.2,1.7.2c3.9.5,9.1,1.3,15.9,2.5l9.3,1.6,2,.3.9.2,2.3.4,4.9.9,2.6.5h.6l6.6,1.3,2.9.6,6.1,1.2,3.1.7,3,.6,6.2,1.3,3.1.7,6,1.3,7.6,1.7,7.3,1.6h.5l7,1.6,4,.9,4,.9,8.2,2,4.3,1,12.8,3.1,5,1.2c45.5,11.2,69.7,18.8,85.6,23.9,21.9,6.9,28.5,8.9,53.8,8.4,22.2-.5,48.5-.2,71.7.1h34.5c7.6,0,14.1-.1,19.2-.3a62,62,0,0,0,12.1-1.8l3.5-.9h0l3.6-1a178.7,178.7,0,0,0,21.1-7.9l1.1-.5,7.2-3.3,1-.5,5.9-2.9,1.1-.6,2.8-1.5.8-.4,1.2-.7c42.2-13,74.4-41.7,78.9-56.5,5.6-18.3,10.6-38.6,6-67.9l2.7,3.3c12.9,15.1,34.4,40.3,28.4,96.8-8.1,12.5-60.7,89.8-121.7,106.6-35,1.5-103.6,4.7-154.9,9.4l-3.8.4h-.1l-7.3.7-10.5,1.1Zm388.5,26h-.1c-7.9,3.2-117.8,28.7-153.9,33s-440.3,24.2-618-9.5c-217.5-41.3-220.4-99.1-220.1-105.5l.2-1.1c1.2-9.1,3.5-26.1,139.3-60.4a25.2,25.2,0,0,1,2.5,9.3c-40.3,13-85.4,30.1-85.9,30.3l-.7.2,1,14.2.5.3c1.7.9,41.1,22.9,62.6,25.9,185.9,40.6,277.4,44,484.6,48.3a15.4,15.4,0,0,0,5.6-1c5.6-2.1,8.5-3.7,8.2-5.8s-1.4-2.3-5.7-3.1l1.5-.2,10.8-1.1h.2l6.6-.7,8.5-.7,5.3-.5,27.6-2,5.3-.4,20.2-1.3,16.9-1h.2l10.9-.6,7.1-.4,10-.5h.3l3.4-.2h.1l3.2-.2h.5l5.5-.2,9.6-.5h5.8l2.8-.2h6.3l5.5-.3,6.4-.2h2.1l7.5-.3h4.4l-7.7,6.9h2.7c.7,0,18.7.1,28.3-1.6l11.4-2.1c33.7-6.2,136.5-25.1,142.4-25.9,14.7-2.1,52.6-14.9,64.1-23.7,5.8-4.5,8.6-9.3,8.1-13.7s-4.5-8.8-11.5-12.1c-9.2-4.5-25.1-8.9-37.8-12.4l-13.1-3.7c-10.8-4.2-11.9-4.9-15-8.5,15.3-.5,52.8,2.5,76.1,9.6s56.5,23.7,59.9,42.5C1298.4,390.5,1191,431.1,1171,437.1Z"/><path class="cls-9" d="M1171,437.1h-.1c-7.9,3.2-117.8,28.7-153.9,33s-440.3,24.2-618-9.5c-217.5-41.3-220.4-99.1-220.1-105.5l.2-1.1c1.2-9.1,3.5-26.1,139.3-60.4a25.2,25.2,0,0,1,2.5,9.3c-40.3,13-85.4,30.1-85.9,30.3l-.7.2,1,14.2.5.3c1.7.9,41.1,22.9,62.6,25.9,185.9,40.6,277.4,44,484.6,48.3a15.4,15.4,0,0,0,5.6-1c5.6-2.1,8.5-3.7,8.2-5.8s-1.4-2.3-5.7-3.1l1.5-.2,10.8-1.1h.2l6.6-.7,8.5-.7,5.3-.5,27.6-2,5.3-.4,20.2-1.3,16.9-1h.2l10.9-.6,7.1-.4,10-.5h.3l3.4-.2h.1l3.2-.2h.5l5.5-.2,9.6-.5h5.8l2.8-.2h6.3l5.5-.3,6.4-.2h2.1l7.5-.3h4.4l-7.7,6.9h2.7c.7,0,18.7.1,28.3-1.6l11.4-2.1c33.7-6.2,136.5-25.1,142.4-25.9,14.7-2.1,52.6-14.9,64.1-23.7,5.8-4.5,8.6-9.3,8.1-13.7s-4.5-8.8-11.5-12.1c-9.2-4.5-25.1-8.9-37.8-12.4l-13.1-3.7c-10.8-4.2-11.9-4.9-15-8.5,15.3-.5,52.8,2.5,76.1,9.6s56.5,23.7,59.9,42.5C1298.4,390.5,1191,431.1,1171,437.1Z"/><path class="cls-10" d="M1127.8,339C1077,390.2,997,397.2,989,397.8h-.7l-14.8.5c58.4-20.8,107.5-92.7,115.6-105.1,33.3-10.3,44.6-51.2,47-61.6C1142.4,241.7,1167.9,288.3,1127.8,339Z"/><path class="cls-11" d="M335.9,240.3c-13,6-19.6,21.7-20.8,24.8a136.3,136.3,0,0,0-10.7-10.8c-16.3-10.6-29.9-17-43-23.2-19.8-9.4-37-17.6-57.7-38a10.4,10.4,0,0,1,2.5-4.3,956.7,956.7,0,0,1,92.4,37C313.7,232.7,324,237.4,335.9,240.3Z"/><path class="cls-12" d="M367.5,242.7c-24.4,15.5-35.3,41.4-37.5,47.3a74.7,74.7,0,0,0-14.2-24l1,.4c.1-.2,7-19,21.2-24.7l-.4-1a126.8,126.8,0,0,0,15,2.5A148.4,148.4,0,0,0,367.5,242.7Z"/><path class="cls-13" d="M1087.4,292.1c-8.1,12.5-60.7,89.8-121.7,106.6-35,1.5-103.6,4.7-154.9,9.4l-3.8.4h-.1l-7.3.7-10.5,1.1-6.6.8h0c-8.4-.7-20.6-1.1-37-1.1h-9.9c-8.6-.8-26-1.1-49.9-1.6-71.9-1.4-192.2-3.9-274.7-20.3-72.5-29.7-74.4-50.4-76.6-74.3-.6-6.9-1.3-14.3-3.9-22.3l1,.3c.1-.3,10.6-31.7,38.8-48.5l-.5-.9a133.4,133.4,0,0,0,13.8-2.5c10.5-2.3,18-4,35.8,3.1,34,11.3,72.2,30.5,79.5,34.3a1.7,1.7,0,0,0,1.8-.2l.4-.4h4.6l1.6.2,1.7.2c3.9.5,9.1,1.3,15.9,2.5l9.3,1.6,2,.3.9.2,2.3.4,4.9.9,2.6.5h.6l6.6,1.3,2.9.6,6.1,1.2,3.1.7,3,.6,6.2,1.3,3.1.7,6,1.3,7.6,1.7,7.3,1.6h.5l7,1.6,4,.9,4,.9,8.2,2,4.3,1,12.8,3.1,5,1.2c45.5,11.2,69.7,18.8,85.6,23.9,21.9,6.9,28.5,8.9,53.8,8.4,22.2-.5,48.5-.2,71.7.1h34.5c7.6,0,14.1-.1,19.2-.3a62,62,0,0,0,12.1-1.8l3.5-.9h0l3.6-1a178.7,178.7,0,0,0,21.1-7.9l1.1-.5,7.2-3.3,1-.5,5.9-2.9,1.1-.6,2.8-1.5.8-.4,1.2-.7c42.2-13,74.4-41.7,78.9-56.5,5.6-18.3,10.6-38.6,6-67.9l2.7,3.3C1071.9,210.4,1093.4,235.6,1087.4,292.1Z"/><path class="cls-14" d="M961.8,319.1l-2.2,1.1-2.3,1.1-3,1.4-2.1,1-5.7,2.4-2.4,1-4.7,1.9c-3.6,1.4-7.3,2.7-11,3.8l-1.7.5-2.5.7-2.5.6h-.2l-2.3.5-3,.5-1.8.3-1.5.2h-3c-11.6.5-31.1.3-53.6,0-14.3-.1-29.8-.3-44.8-.3l-26.9.2c-25,.6-31-1.3-53.1-8.3-16-5-40.2-12.7-85.8-23.9l-26.3-6.3-6.5-1.5-13.1-3-7.3-1.7-13.6-3-4.7-1-7.7-1.6-2.9-.6-16.5-3.2-4.1-.8-4.4-.8-11.8-2.1-2.9-.5-5.7-.9-5.6-.8-1.3-.2-1.7-.3-3.7-.5h-.8l-3.5-.4h-.3a92.3,92.3,0,0,0-4.2-14.5l1,.3c.1-.3,10.6-32.4,32.4-42l-.4-.9c12.6,1.7,26.1,3.8,36.5,6.4,13.2,3.2,26.9,8.4,45.9,15.6,45.9,17.2,122.6,46.2,287.8,81.9A150,150,0,0,0,961.8,319.1Z"/><path class="cls-15" d="M528.2,217.3c-19.5,9.6-29.6,35.5-31.7,41.4A84.5,84.5,0,0,0,486,239.9h1c0-.2-.1-14.4,19-24.6l-.4-.9,4.6.6Z"/><path class="cls-16" d="M503.8,214.2c-16,9.1-18.4,20.6-18.8,24.5a66.1,66.1,0,0,0-15.7-14.6c-4.7-3.9-13.9-9.9-24.5-16.8-20.4-13.4-50.8-33.2-50.9-40.4,11.2,5.4,93.3,45,104.9,46.6Z"/><path class="cls-17" d="M878,628.1"/><path class="cls-18" d="M646.7,418"/><text class="cls-19" transform="translate(209.4 806.5)">So PECOKO</text><text class="cls-20" transform="translate(209.4 806.5)">So PECOKO</text></g></svg>