<svg xmlns="http://www.w3.org/2000/svg" viewBox="0 0 439.5 439.5"><defs><style>.cls-1{fill:#1d1d1b;stroke:#e94e1b;stroke-miterlimit:10;stroke-width:4px;}.cls-2{fill:#be1622;}.cls-3{fill:#f6f6f6;}.cls-4{fill:#e6332a;}.cls-5{fill:#575756;}</style></defs><g id="Calque_3" data-name="Calque 3"><circle class="cls-1" cx="219.7" cy="219.7" r="217.7"/><path class="cls-2" d="M205.3,162.1l-2,.6-2.9.9-4.5,1.4-.3-1.1c-.1-.4-.1-.8-.2-1.1l-.3-1.1h0l-.3-1c-.3-1.1-.7-2.2-1.1-3.3a42.7,42.7,0,0,0-2.9-6.1,29.1,29.1,0,0,0-1.7-3,47,47,0,0,0-48.7-20.5h-.2l-.2.2a47.4,47.4,0,0,0-.9,52.8l.9,1.3.9,1.3.8,1a14.6,14.6,0,0,0,1.6,1.9l.8.9,1.1,1.1.2.3,1,.9.7.6h0l-2.1,1.6-4.4,3.4-2,1.6a66.2,66.2,0,0,1-15.4-16.7,70,70,0,0,1-11-33.1h0a68.7,68.7,0,0,1,12.2-43.3,68.6,68.6,0,0,1,44.5,6.4h.1a69.6,69.6,0,0,1,25.8,23.3A68.3,68.3,0,0,1,205.3,162.1Z" transform="translate(-30.3 -30.3)"/><path class="cls-2" d="M387.9,142.7c0,1.3,0,2.7-.1,4.1a67.9,67.9,0,0,1-11,33.1,65.8,65.8,0,0,1-15.3,16.7L353,190l.6-.6,1.1-.9.2-.3.9-.9.7-.8.7-.8a13.4,13.4,0,0,0,1.1-1.4l.9-1,.9-1.3a5.7,5.7,0,0,0,.8-1.3,46.9,46.9,0,0,0-.9-52.8v-.2h-.2A47,47,0,0,0,311,148.2l-1.8,3a47.8,47.8,0,0,0-2.8,6.1,4.9,4.9,0,0,0-.4,1.1l-.3.9-.6,1.8-.3,1.1a5.2,5.2,0,0,0-.2,1.1l-.3,1.2c0,.2-.1.3-.1.5l-1.9-.6-2.7-.8-4.8-1.4a65.6,65.6,0,0,1,10.5-28.9A68.6,68.6,0,0,1,331,110h.2a68.5,68.5,0,0,1,44.5-6.4A69.1,69.1,0,0,1,387.9,142.7Z" transform="translate(-30.3 -30.3)"/><path class="cls-3" d="M383,279c2.3,3.9,4.4,8,6.4,12.1a155.8,155.8,0,0,0-110.8,77.2,177.3,177.3,0,0,0-17.7,61.2c0-.1-.1-.1-.2-.2s.1-1,.2-1.5.2-1.6.2-2.4h0v-.7h0a6.8,6.8,0,0,0,.2-1.5c.1-1.1.1-2.1.2-3.2v-.2c0-.8.1-1.5.1-2.3a1.3,1.3,0,0,1,.1-.6,6.6,6.6,0,0,1,.1-1.4v-1.2c.1-.6.1-1.1.2-1.7v-.7a13.7,13.7,0,0,1,.2-1.9,16.4,16.4,0,0,1,.2-2.2c.1-.5.1-1,.2-1.4.4-2.9.8-5.7,1.3-8.5l.3-1.5c.1-.8.3-1.6.5-2.5a15.7,15.7,0,0,1,.6-2.8,28.8,28.8,0,0,1,.9-4,16,16,0,0,1,.5-2.1c.5-1.8.9-3.6,1.5-5.4s.3-1,.4-1.6c.8-2.6,1.7-5.2,2.6-7.8a13.4,13.4,0,0,1,.7-1.8c.8-2.3,1.6-4.4,2.5-6.6l1.1-2.6a3.6,3.6,0,0,1,.4-.9,31.3,31.3,0,0,1,1.5-3.2c.5-1.2,1-2.4,1.6-3.6h.1l1.8-3.7,2-3.6c1.3-2.4,2.6-4.7,4-7l2.1-3.3.2-.4c1.4-2.2,2.9-4.4,4.4-6.5l2.4-3.3h0l2.5-3.2,2.5-3.2,2.7-3.1a26.1,26.1,0,0,1,2.7-3.1c.8-1,1.8-2,2.7-3l2.8-2.9,1.6-1.6,1.6-1.6h.1l1.6-1.5,1.7-1.6,1.4-1.2.5-.5,1.6-1.3a8,8,0,0,1,1.7-1.5,11.9,11.9,0,0,1,1.8-1.5l1.7-1.4h.1l1.8-1.4,3.6-2.8,3.8-2.7,1.9-1.3,1.9-1.3,2-1.2,3.9-2.5,1.9-1.2,2.1-1.2,4.1-2.2a20,20,0,0,1,2.9-1.5l3.4-1.8,2.1-1,6.5-2.9,2.2-.9,2.2-.9,1.4-.5,4.6-1.6,2.2-.8.5-.2,1.8-.5,1.5-.5,2.3-.7.5-.2,2.5-.7,3.5-.9h.3l1.2-.2,2.5-.7,3.1-.6a168,168,0,0,1,8.4,15.7,177.1,177.1,0,0,0-26.8,6.4l-.7.2Z" transform="translate(-30.3 -30.3)"/><path class="cls-3" d="M239.3,429.2l-.2.2a175.1,175.1,0,0,0-17.6-61.1,156,156,0,0,0-110.8-77.2c1.9-4.1,4.1-8.2,6.3-12.1l.4-.6-.7-.2A175.8,175.8,0,0,0,90,271.8a147.4,147.4,0,0,1,8.4-15.7h.8l1.7.4,2.1.5,1.8.4h0c.1,0,.1,0,.1.1h.3l1,.3,1.9.5h.6l.8.2.9.2.6.2h.8l.7.2h.1l2.1.6,2,.6,1.6.6,1.7.5,3.2,1.2,2.2.8.8.3,2.4,1,2.1.9,1.9.8,1.9.8.3.2,1.3.6,1.8.8,1.5.7h.2l2.2,1.1,4.4,2.3,1.4.8a11.8,11.8,0,0,1,1.9,1.1l1.5.8,3.1,1.9,2.7,1.6.5.4.9.6,1,.6,1.2.8,1.1.7.4.3a.1.1,0,0,1,.1.1l1.2.8h.1l.6.4,2.2,1.7c1.8,1.3,3.5,2.5,5.2,3.9l1.8,1.4,1.7,1.4,2.1,1.8.9.8,2.2,1.9,1.6,1.5.6.5,1.7,1.6,2.5,2.5.5.5,2.6,2.5,1.4,1.6a35.8,35.8,0,0,1,2.7,2.9l2.6,3a16.3,16.3,0,0,1,1.7,2l1,1.2,2.4,3h.1l.7.9.5.7,1.2,1.6v.2l1.2,1.5,2.2,3.2,1.2,1.6,2,3.1.6,1,.8,1.3a.1.1,0,0,1,.1.1l.9,1.4h0l2,3.2,1.9,3.4.3.7,1.8,3.3a8,8,0,0,1,.8,1.6l.8,1.5a4.7,4.7,0,0,0,.5,1h0c.4.7.7,1.5,1.1,2.3a3.6,3.6,0,0,1,.4.9c.6,1.2,1.1,2.5,1.7,3.8s.5,1,.7,1.6l.6,1.6c.4.9.8,1.8,1.1,2.7l1.2,3.1a.3.3,0,0,1,.1.2l.3.9a10.4,10.4,0,0,1,.4,1c.4,1.3.9,2.6,1.3,4l.6,1.8a20.2,20.2,0,0,1,.7,2.3,5,5,0,0,1,.4,1.3l1.2,4.2a.4.4,0,0,0,.1.3h0c.1.3.1.5.2.8l1.5,6.1.6,3.1c.9,4.1,1.5,8.2,2.1,12.4,0,.5.1.9.1,1.4l.6,4.9a9.2,9.2,0,0,0,.1,1.6c0,.4.1.8.1,1.2a6.6,6.6,0,0,1,.1,1.4v.5a21.1,21.1,0,0,1,.2,2.5c.1,1.1.1,2.2.1,3.4a7.7,7.7,0,0,1,.2,1.5,2,2,0,0,1,.1.7h0C239.1,426.7,239.2,428,239.3,429.2Z" transform="translate(-30.3 -30.3)"/><path class="cls-3" d="M197.1,166h0l-.6.2-1.1.4-1.8.6-6.3,2.4-6.7,2.8A193.6,193.6,0,0,0,152,188.1l-3,2-2.9,2.1-1-.9-1-1-1.4-1.4a6.9,6.9,0,0,1-1.1-1.3l-1.1-1.2-1.3-1.7-.9-1.2-.9-1.4a50.1,50.1,0,0,1,.8-56.1,50,50,0,0,1,51.6,21.9,4.1,4.1,0,0,0,.7,1.1l.7,1.2a4.7,4.7,0,0,1,.5,1,19.6,19.6,0,0,1,1.3,2.5,3.6,3.6,0,0,1,.4.9,26.3,26.3,0,0,1,1.5,3.5c.1.4.3.8.4,1.1l.3.9.3,1.1a10.5,10.5,0,0,1,.5,1.9,3,3,0,0,1,.2,1C196.8,164.7,196.9,165.3,197.1,166Z" transform="translate(-30.3 -30.3)"/><path class="cls-3" d="M371.9,153.7a50.7,50.7,0,0,1-8.2,27.4l-2.1,3-1,1.2a37.9,37.9,0,0,1-3.8,4.2l-.9.9-.5.4-.4.4h0l-2.9-2.1-3-2-2.2-1.4h-.2l-1.5-1c-2.4-1.5-4.8-3-7.3-4.4l-1.9-1a162.1,162.1,0,0,0-15.6-7.8l-3.2-1.4-.7-.3-2-.8-.7-.3-3.4-1.3-3.5-1.3-2-.7-.9-.3h0c0-.2.1-.5.1-.7l.3-1.2.3-1.2c.3-1.2.7-2.5,1.1-3.7l.3-.9c.1-.2.1-.4.2-.5l.9-2.3a57.5,57.5,0,0,1,3.4-6.5l.7-1.1A50,50,0,0,1,362.9,125,50.5,50.5,0,0,1,371.9,153.7Z" transform="translate(-30.3 -30.3)"/><path class="cls-4" d="M411.4,254.6h0l-1.5.2-2.3.4-1.1.2-1.7.3-1.5.3h-.1a178.2,178.2,0,0,0-28.1,8.3H375l-.4.2-3,1.2-3,1.3-2.5,1-.8.4-.5.2-1,.5-2.8,1.4-.9.4-1.3.7-.5.2-2.9,1.5-1.4.8-2.2,1.2-.6.3-.5.3-.8.5-.9.5-1.6,1-.8.5a3.1,3.1,0,0,0-1,.5l-.4.3c-1.6,1-3.1,1.9-4.6,3l-1.5,1-1.2.8-.4.2-1.4,1.1-.5.3-.7.5-1.9,1.4-2.3,1.7-1.8,1.4-1.7,1.4-2.5,2-1,.9-1.4,1.2-1.7,1.5-.3.3-.8.7-.8.8-1,.9-1.6,1.6-2.1,1.9a18.5,18.5,0,0,1-1.4,1.4l-1.4,1.5-1.4,1.4-1,1.2-1.1,1.1-.9,1.1a36.5,36.5,0,0,0-2.7,3l-1,1.1-.7.9a10.1,10.1,0,0,0-1.3,1.6l-.8.9-3.6,4.7-2.8,3.9-1.5,2.1-1.4,2.1-.8,1.1-.9,1.4a10,10,0,0,0-.8,1.4c-.6.9-1.2,1.8-1.7,2.7a33.7,33.7,0,0,0-1.9,3.2h0l-.3.5a.4.4,0,0,0-.1.3l-1.1,1.9-1.4,2.5-.9,1.7c-.3.6-.6,1.1-.8,1.6s-.2.3-.2.4v.2l-1.2,2.4-1.1,2.3-.4.9c0,.1-.1.2-.1.3a.4.4,0,0,0-.1.3c-.4.7-.7,1.5-1.1,2.2l-1.3,3.1-.9,2.3a7.8,7.8,0,0,0-.5,1.4.8.8,0,0,0-.2.4c-.1.2-.1.3-.2.4h0l-.6,1.5c-.4,1-.7,2.1-1.1,3.1l-.9,2.8a3,3,0,0,0-.4,1c-.1.4-.3.9-.4,1.4s-.1.3-.2.4-.3,1-.4,1.4a.4.4,0,0,1-.1.3l-.3,1-.3,1.2a1.9,1.9,0,0,0-.2.8l-.6,1.9c-.1.3-.1.6-.2.9s-.3,1.1-.5,1.7h0c-.1.6-.3,1.1-.4,1.6v.2h-.1c-.1.1-.1.3-.2.5s-.1.5-.1.7-.1.4-.2.6h0c-.1.7-.3,1.3-.4,2a2.9,2.9,0,0,0-.2.9c0,.1-.1.2-.1.3v.2a2.9,2.9,0,0,0-.2.9c0,.1-.1.3-.1.4s-.1.4-.1.6a6.4,6.4,0,0,0-.2.9c-.1.4-.1.8-.2,1.2h0l-.3,1.8h-.1a1.7,1.7,0,0,1-.1.7c-.1,1-.3,2-.5,3h0a28.9,28.9,0,0,1-.4,2.9c0,.4-.1.9-.1,1.3l-.3,2.1v.3h0v.2l-.3,3.1h0c-.1,1-.2,2.1-.2,3.1s0,.1-.1.2h0c0,1-.1,1.9-.1,2.8a.4.4,0,0,0-.1.3v.3h0v1.2a2.2,2.2,0,0,0-.1.8v.9c0,.1,0,.2-.1.2v3.3h0a.7.7,0,0,0-.1.5v.3a1.9,1.9,0,0,0-.1.8v1.3a17.1,17.1,0,0,0-11-4,17.5,17.5,0,0,0-10.9,3.9V429a8.8,8.8,0,0,1-.2-1.6c0-.3-.1-.5-.1-.7v-.2c0-.9-.1-1.8-.1-2.8a9.2,9.2,0,0,0-.1-1.6v-1.3c0-.5-.1-1-.1-1.4s-.1-1.9-.2-2.8l-.3-3.3-.3-2.8c0-.5-.1-.9-.1-1.3V409a2,2,0,0,1-.1-.7c0-.2-.1-.4-.1-.7h0c-.1-.4-.1-.9-.2-1.3l-.3-2.4-.3-1.9-.3-2c-.1-.6-.3-1.3-.4-2s-.1-.3-.1-.5h0c-.1-.4-.1-.8-.2-1.2s-.1-.1-.1-.2v-.3a15.5,15.5,0,0,1-.4-2.1l-.6-2.7h-.1l-.3-1.4-.3-1.5a8.3,8.3,0,0,1-.4-1.5c-.3-.9-.5-1.9-.8-2.9s-.4-1.6-.7-2.5-.3-1.2-.5-1.8-.5-1.5-.7-2.2a24.1,24.1,0,0,0-.8-2.5c-.2-.7-.5-1.4-.7-2.1s-.5-1.3-.7-2l-1.5-4.1v-.2c0-.1-.1-.2-.1-.3l-.5-1.2-.7-1.8a12.2,12.2,0,0,1-.7-1.7c-.1-.1-.1-.3-.2-.4a1.4,1.4,0,0,1-.2-.6c-.1,0-.1-.1-.1-.2l-1.2-2.6c-.3-.8-.7-1.5-1-2.3s-.2-.2-.2-.3a15.1,15.1,0,0,0-1.1-2.2c-.5-1.1-1-2.2-1.6-3.3l-.3-.6-.2-.3a.4.4,0,0,0-.1-.3l-.3-.5-.9-1.7-.2-.4-2.3-4-1.5-2.7-.3-.4-.9-1.5-.7-1.1a2.1,2.1,0,0,0-.4-.6,14,14,0,0,0-1-1.6l-.8-1.2-1.5-2.2-1-1.5-1-1.4c-.5-.8-1.1-1.5-1.7-2.3v-.2H204l-1.8-2.5-.3-.3-.2-.3-.8-1-.2-.2h0l-1-1.1-.5-.7-.3-.5a.2.2,0,0,1-.2-.2l-.6-.7-.4-.5a.1.1,0,0,1-.1-.1h-.1l-.5-.6h-.1l-.3-.4-.3-.3-.3-.4-.4-.5h-.3l-.9-1c-.1-.1-.1-.2-.2-.2l-.7-.8-.4-.5H193c0-.1-.1-.1-.1-.2h0l-.3-.3-.3-.4-.3-.3h-.1c-.1-.1-.1-.2-.2-.2l-.3-.3h-.1l-.5-.6-.2-.2-.2-.2-.9-1-.3-.3-.3-.2c0-.1-.1-.1-.1-.2h-.2l-.6-.7c-.2-.2-.3-.4-.5-.5s-.3-.3-.5-.5l-.4-.4-.2-.3h-.1l-.6-.6-.4-.4-1-1-.3-.3-.4-.3-2.7-2.5-.5-.5h-.2v-.2l-1.4-1.2h-.2a.1.1,0,0,0-.1-.1h0l-.2-.2H178a.1.1,0,0,1-.1-.1h-.1l-.5-.4-.6-.5h-.1l-1.2-1-2.2-1.8H173l-1.3-1-.2-.2-.4-.3h-.2a39.2,39.2,0,0,0-3.2-2.5l-2.2-1.7-.5-.3a.1.1,0,0,0-.1-.1l-2.4-1.7-2.6-1.8-2-1.3-1.7-1.1H156l-3.3-2-.3-.2-1.8-1.1h-.3a11.8,11.8,0,0,0-1.9-1.1l-.2-.2-2.2-1.1-2.7-1.5-2.6-1.3-.9-.5-.9-.4h-.2l-1.8-.9-2-.9-.8-.4-2.6-1.1-3-1.3-3.1-1.2-.3-.2-3.1-1.1-3.3-1.2-.8-.3-2.4-.8-1.2-.3h-.2l-1.6-.5h-.3l-1.5-.4-2-.6h-.5l-.9-.3h-1.1a3.5,3.5,0,0,0-1.1-.3h-.7l-.6-.2-3.2-.7h0l-3.7-.8h-.2l-1.9-.3-2-.4h-.4l-2.2-.4-1.5-.2h0a163.7,163.7,0,0,1,15.2-26.2,174.5,174.5,0,0,1,16.4-20.2,188.9,188.9,0,0,1,15.3-14.4l.3-.3,2.1-1.6,3.1-2.5,3.1-2.3.8-.6.4-.2.6-.5a176.1,176.1,0,0,1,43.4-22.7l1.9-.6.7-.3h.6c3.3-1.1,6.9-2.2,10.5-3.1l.5-.2a170.3,170.3,0,0,1,18.6-3.8,176.9,176.9,0,0,1,23-1.9h9.7a176.7,176.7,0,0,1,41.6,5.7l.5.2c2.5.6,5.1,1.4,7.5,2.2l1.7.5.8.3h.5l.6.2c5.1,1.8,10,3.7,14.9,5.9l2.3,1,1,.5,2.7,1.3,3,1.5,2.5,1.3,1.2.6,1.6.9,1.7,1,1.5.8c3.9,2.3,7.7,4.8,11.5,7.4l2.1,1.4.6.5.4.2,1,.8,1.5,1.1,1.5,1.1,1.4,1.2h0l3.6,2.8.4.4a186.5,186.5,0,0,1,15.3,14.3,174.5,174.5,0,0,1,16.4,20.2A180.3,180.3,0,0,1,411.4,254.6Z" transform="translate(-30.3 -30.3)"/><path class="cls-5" d="M262.9,424.6a12.9,12.9,0,1,1-23.6-7.3l.9-1.1.2-.2.8-.9a13.1,13.1,0,0,1,17.6,0l.9,1h.1l.9,1.1A13.1,13.1,0,0,1,262.9,424.6Z" transform="translate(-30.3 -30.3)"/></g></svg>